<svg version="1.1" id="Layer_1" xmlns="http://www.w3.org/2000/svg" xmlns:xlink="http://www.w3.org/1999/xlink" x="0px" y="0px"
	 width="100%" viewBox="0 0 866 1114" enable-background="new 0 0 866 1114" xml:space="preserve">
<path fill="#000000" opacity="1.000000" stroke="none" 
	d="
M429.000000,1115.000000 
	C286.000000,1115.000000 143.500000,1115.000000 1.000000,1115.000000 
	C1.000000,743.666687 1.000000,372.333344 1.000000,1.000000 
	C289.666656,1.000000 578.333313,1.000000 867.000000,1.000000 
	C867.000000,372.333344 867.000000,743.666687 867.000000,1115.000000 
	C721.166687,1115.000000 575.333313,1115.000000 429.000000,1115.000000 
M194.500000,575.000000 
	C174.836578,575.000000 155.172928,574.951843 135.509964,575.048035 
	C132.272583,575.063843 128.907822,575.259583 125.824509,576.146240 
	C110.040215,580.685669 95.819565,588.102051 85.492393,601.218689 
	C80.970665,606.961792 77.401649,613.557983 74.061356,620.104248 
	C69.027840,629.968811 69.010437,640.752136 68.871216,651.601501 
	C68.680389,666.473206 73.444115,679.427246 81.795631,691.402832 
	C96.460732,712.431641 117.031975,722.481934 142.197296,722.821045 
	C154.148621,722.982178 165.658310,720.275146 176.602676,714.362610 
	C189.825317,707.219299 199.857285,697.521484 207.156967,684.531189 
	C213.328018,673.549377 216.266678,661.847290 216.114883,649.196777 
	C368.161499,649.196777 519.883362,649.196777 671.536072,649.196777 
	C672.096069,655.083374 671.886658,660.964294 673.317505,666.414490 
	C677.688171,683.062744 686.291382,697.195129 700.226990,707.713745 
	C717.922974,721.070618 738.037781,725.601440 759.474670,721.582642 
	C780.140808,717.708374 796.600647,706.808228 808.150085,688.538269 
	C819.585938,670.448181 821.499146,651.070618 817.288025,630.899109 
	C813.640259,613.426208 803.707520,599.509949 789.372009,588.978760 
	C777.543213,580.289062 764.239990,575.047241 749.400085,575.042053 
	C564.766724,574.977783 380.133362,575.000000 194.500000,575.000000 
M545.953491,931.573547 
	C548.426270,929.356506 550.828674,927.054504 553.384399,924.937622 
	C563.056641,916.926697 572.552490,908.679199 582.533386,901.069885 
	C598.616760,888.808289 614.825439,876.687683 631.376648,865.071045 
	C643.336426,856.676880 655.737793,848.859802 668.308167,841.402100 
	C681.410889,833.628601 694.947449,826.585754 708.304749,819.242493 
	C712.809570,816.765930 717.346252,814.347473 721.868347,811.902466 
	C721.559265,811.307190 721.250122,810.711853 720.940979,810.116577 
	C503.302246,816.708923 324.605988,903.568237 184.779190,1070.544067 
	C184.916168,1071.029297 185.053162,1071.514648 185.190140,1072.000000 
	C186.929184,1072.000000 188.668243,1072.000000 190.407288,1072.000000 
	C219.402954,1072.000000 248.398621,1072.000000 277.394287,1072.000000 
	C323.054138,1072.000000 368.713989,1072.015747 414.373718,1071.942627 
	C416.199097,1071.939697 418.796234,1071.713623 419.729462,1070.547729 
	C430.408691,1057.205566 440.554962,1043.431030 451.403015,1030.231689 
	C463.377777,1015.661438 475.534058,1001.198303 488.350067,987.373413 
	C501.056152,973.666992 514.588623,960.718018 527.949219,947.631409 
	C533.510986,942.183655 539.565979,937.239441 545.953491,931.573547 
M553.500000,530.000000 
	C595.594299,530.000000 637.688599,530.000000 679.709839,530.000000 
	C679.709839,505.686768 679.709839,481.948517 679.709839,458.286926 
	C522.352783,458.286926 365.286011,458.286926 208.290161,458.286926 
	C208.290161,482.313171 208.290161,506.051422 208.290161,530.000000 
	C323.220123,530.000000 437.860077,530.000000 553.500000,530.000000 
M415.999969,337.712646 
	C416.666626,355.043213 417.512054,372.369385 417.939941,389.705872 
	C418.248169,402.192688 417.991272,414.693298 418.013428,427.187683 
	C418.015656,428.442230 418.204712,429.696411 418.282410,430.648987 
	C435.779297,430.648987 452.848145,430.648987 469.129364,430.648987 
	C470.095276,403.624115 470.967468,376.975098 472.039886,350.334137 
	C472.462860,339.826263 473.304535,329.334503 474.005249,318.838745 
	C474.978973,304.254211 475.997925,289.672760 477.000427,275.090149 
	C477.664886,265.424927 478.328491,255.759659 479.004364,246.095230 
	C479.336456,241.345749 479.560638,236.583664 480.069275,231.852615 
	C481.306183,220.347885 482.730988,208.863434 483.981598,197.360107 
	C484.759186,190.208130 485.269440,183.026978 486.055695,175.876068 
	C487.301788,164.543396 488.727112,153.230453 489.982025,141.898697 
	C490.755646,134.912933 491.178070,127.885338 492.066711,120.915878 
	C493.936829,106.248894 496.017273,91.608795 497.997162,76.955734 
	C499.019897,69.386269 500.016632,61.813251 501.016022,54.240643 
	C501.452667,50.931896 501.866547,47.620144 502.297028,44.261013 
	C463.042511,44.261013 424.643311,44.261013 386.123230,44.261013 
	C386.073029,45.156261 385.943542,45.808876 386.015015,46.438690 
	C387.079773,55.823502 388.130127,65.210274 389.269440,74.586197 
	C390.152252,81.851028 391.164917,89.099991 392.100494,96.358505 
	C393.409760,106.516258 394.810150,116.663940 395.964661,126.839409 
	C396.850037,134.642914 397.263489,142.500229 398.161560,150.301987 
	C399.295074,160.149078 400.832367,169.949768 401.959839,179.797440 
	C402.834534,187.437210 403.290192,195.123932 404.034454,202.779831 
	C405.314240,215.944748 406.726044,229.096939 407.980804,242.264160 
	C408.758026,250.419998 409.332214,258.595032 410.024658,266.759125 
	C411.339508,282.260712 412.674896,297.760498 413.999542,313.261230 
	C414.668884,321.093628 415.333282,328.926453 415.999969,337.712646 
M240.000000,707.504761 
	C240.000000,785.268311 240.000000,863.031860 240.000000,941.261169 
	C241.423843,940.817139 242.479156,940.772766 243.139740,940.239502 
	C254.075699,931.409851 264.658264,922.109558 275.933319,913.740967 
	C291.491638,902.193359 307.489075,891.228760 323.482513,880.283386 
	C326.506958,878.213562 328.073761,876.286926 328.067474,872.499939 
	C327.970703,814.170349 328.001617,755.840454 327.990509,697.510681 
	C327.990234,696.074036 327.848785,694.637390 327.777771,693.287659 
	C298.357880,693.287659 269.286896,693.287659 240.000000,693.287659 
	C240.000000,697.885010 240.000000,702.196472 240.000000,707.504761 
M332.045990,280.417114 
	C332.250000,280.678986 332.573914,280.913452 332.640808,281.206635 
	C335.431274,293.435333 338.299774,305.647522 340.939758,317.908905 
	C343.416931,329.414032 345.965607,340.919067 347.903381,352.520905 
	C349.962860,364.851593 351.355713,377.294067 353.012878,389.691345 
	C354.692474,402.255981 356.267670,414.835541 358.106262,427.376617 
	C358.299408,428.694092 359.937653,430.818176 360.945129,430.841339 
	C371.874237,431.092499 382.811310,430.998291 394.262787,430.998291 
	C391.103210,330.139465 377.398651,231.353607 352.363983,133.967377 
	C351.111115,134.043106 349.749756,133.910751 348.506073,134.232849 
	C330.955170,138.778519 313.513062,143.802444 295.828888,147.742477 
	C289.991333,149.043091 292.325592,151.887970 293.159119,154.301605 
	C298.280426,169.131226 303.906555,183.789230 308.879364,198.666565 
	C312.938507,210.810394 316.467407,223.138901 319.964783,235.461182 
	C324.125549,250.120926 328.001465,264.861511 332.045990,280.417114 
M588.002136,171.587341 
	C590.438232,164.814316 592.962646,158.070099 595.192200,151.229736 
	C595.453796,150.426987 594.289185,148.340424 593.453186,148.122055 
	C581.491943,144.997757 569.472473,142.096512 557.469116,139.132965 
	C550.174683,137.332016 542.883911,135.516312 535.441162,133.669937 
	C533.649170,141.228760 531.932861,148.239716 530.330322,155.276566 
	C527.186462,169.080750 523.970154,182.870621 521.038391,196.720291 
	C518.232300,209.976074 515.647034,223.281143 513.161255,236.601257 
	C511.588043,245.031631 510.331451,253.522461 509.012329,261.998535 
	C507.690491,270.492004 506.397644,278.991241 505.220795,287.505707 
	C504.063141,295.881317 502.917877,304.263672 502.042175,312.671722 
	C501.176636,320.982300 500.657959,329.328949 499.981934,337.659332 
	C498.656555,353.990723 497.302216,370.319794 496.013519,386.654053 
	C495.548035,392.553772 495.175018,398.462463 494.869263,404.372742 
	C494.412415,413.202148 494.052368,422.036621 493.645203,431.000000 
	C504.668091,431.000000 514.661438,430.805969 524.640991,431.091827 
	C528.862549,431.212738 529.862610,429.472107 530.075928,425.694244 
	C530.527893,417.690216 531.048523,409.659210 532.188232,401.732330 
	C533.821838,390.371490 536.046509,379.096008 537.995239,367.780029 
	C539.889038,356.783081 541.561279,345.743774 543.688354,334.792511 
	C545.528320,325.319183 547.820862,315.931946 550.001038,306.527008 
	C553.629517,290.874695 557.129578,275.188416 561.066833,259.613342 
	C563.696716,249.210251 566.821899,238.922287 570.024597,228.676315 
	C575.899048,209.883240 581.994507,191.159241 588.002136,171.587341 
M476.990540,804.514282 
	C481.940674,802.686707 486.765289,800.128540 491.878479,799.249817 
	C496.434082,798.466919 497.046173,796.332031 497.038330,792.573547 
	C496.971405,760.604553 497.000000,728.635376 497.000000,696.666260 
	C497.000000,695.554077 497.000000,694.441956 497.000000,693.203857 
	C467.822968,693.203857 439.104156,693.203857 410.192871,693.203857 
	C410.192871,739.438049 410.192871,785.468811 410.192871,831.679932 
	C419.619904,827.523438 428.856049,823.145142 438.326294,819.351196 
	C450.893463,814.316528 463.643372,809.738037 476.990540,804.514282 
M609.500000,693.000000 
	C593.085510,693.000000 576.671021,693.000000 560.392273,693.000000 
	C560.392273,722.326843 560.392273,751.120850 560.392273,779.088501 
	C589.375916,774.152466 618.113586,769.258301 646.698425,764.390198 
	C646.698425,740.619629 646.698425,716.903137 646.698425,693.000000 
	C634.431763,693.000000 622.465881,693.000000 609.500000,693.000000 
M597.040039,364.645691 
	C597.233765,364.375122 597.530945,364.130554 597.606567,363.830200 
	C603.379456,340.902710 611.836365,318.901367 622.739258,298.035217 
	C631.639954,281.000946 642.212463,264.834412 652.195740,248.375366 
	C654.999329,243.753265 658.339722,239.456818 661.718201,234.602539 
	C649.732483,231.637726 638.472961,228.852554 627.068848,226.031616 
	C587.494019,288.739105 565.532593,356.723938 561.803223,430.999542 
	C569.110107,430.999542 575.748047,431.181915 582.358826,430.839874 
	C583.624084,430.774414 585.635925,428.782379 585.853821,427.443329 
	C587.443237,417.675140 588.338013,407.788483 590.084473,398.052673 
	C592.043091,387.134033 594.666077,376.334564 597.040039,364.645691 
M255.032013,279.341614 
	C261.020813,291.056854 267.458679,302.567993 272.897186,314.533356 
	C281.922577,334.390289 288.782593,355.066223 293.641876,376.338898 
	C296.118134,387.179260 298.107056,398.143738 299.927399,409.116638 
	C301.119507,416.302277 301.615112,423.603485 302.405365,430.697632 
	C310.379822,430.697632 318.123444,430.697632 326.393921,430.697632 
	C325.899780,426.617371 325.407745,422.907501 325.007812,419.187714 
	C323.648102,406.541565 323.225708,393.713043 320.769043,381.285553 
	C317.096161,362.705139 312.691345,344.201935 307.327240,326.041199 
	C301.264221,305.514191 293.401245,285.564850 283.243195,266.620270 
	C276.458496,253.966934 269.749237,241.272675 262.863434,228.674759 
	C262.241882,227.537613 260.355072,226.059631 259.423676,226.281845 
	C248.576462,228.869400 237.799927,231.753265 226.790421,234.614395 
	C236.275726,249.418350 245.619766,264.001831 255.032013,279.341614 
M627.346191,431.000000 
	C628.943604,430.807220 630.914734,431.854889 631.096436,428.655640 
	C631.408997,423.149719 632.327759,417.677948 632.998413,412.192657 
	C635.204834,394.147583 640.902344,377.120178 648.709839,360.836517 
	C658.896545,339.590485 672.147156,320.427917 689.388184,304.212463 
	C690.791809,302.892426 692.853149,302.271667 694.608887,301.325958 
	C694.060608,300.697052 693.512268,300.068146 692.963989,299.439240 
	C687.882935,297.616760 682.703979,296.024384 677.745911,293.913147 
	C671.650696,291.317688 670.779358,291.407532 667.006470,296.888275 
	C662.803284,302.994080 658.067810,308.794434 654.436951,315.220978 
	C646.013123,330.130951 637.495850,345.044525 630.169373,360.503052 
	C622.052002,377.630432 617.562073,396.102844 613.264526,414.521912 
	C612.034302,419.794281 611.624695,425.258057 610.785339,431.000000 
	C616.433960,431.000000 621.406189,431.000000 627.346191,431.000000 
M228.032913,307.373383 
	C225.084869,303.143616 222.246231,298.831299 219.143707,294.718079 
	C217.537613,292.588776 215.786499,291.140045 212.452606,292.731201 
	C206.788025,295.434753 200.756393,297.369232 194.365997,299.823944 
	C231.990921,335.947205 253.324982,379.320618 257.412170,430.729126 
	C264.073212,430.729126 270.500305,430.729126 277.955322,430.729126 
	C274.901642,418.228394 271.733368,406.264648 269.084991,394.186920 
	C264.850159,374.874268 256.883759,357.006012 247.806305,339.670013 
	C242.077209,328.728699 234.961090,318.513672 228.032913,307.373383 
M661.482605,372.013306 
	C652.655762,390.622772 647.207275,410.089203 646.005798,430.718597 
	C650.666870,430.718597 654.750793,430.718597 658.767273,430.718597 
	C660.046021,414.744598 662.526672,399.224457 669.641602,385.080963 
	C674.317566,375.785858 679.580872,366.439423 686.315918,358.607819 
	C696.563232,346.691925 697.201843,347.241119 685.438538,336.081726 
	C675.751770,346.635376 668.061157,358.483734 661.482605,372.013306 
M195.945053,342.589325 
	C195.856216,344.996429 190.478424,345.266724 193.345505,348.815186 
	C198.284119,354.927460 203.981644,360.545990 208.134964,367.143372 
	C213.394257,375.497559 218.633865,384.226318 221.690186,393.514740 
	C225.636124,405.506775 227.413910,418.212250 230.210556,431.000000 
	C231.505066,431.000000 233.481430,431.000000 235.457809,431.000000 
	C237.586349,431.000000 239.714890,431.000000 241.893539,431.000000 
	C239.193192,394.562256 225.803833,363.110504 202.082703,335.612915 
	C200.036179,337.941742 198.233871,339.992645 195.945053,342.589325 
M206.971573,406.810455 
	C208.108337,414.662537 209.245102,422.514618 210.426315,430.673767 
	C213.140060,430.673767 217.004959,430.673767 220.940842,430.673767 
	C221.654404,412.109680 217.297058,395.475372 205.950592,381.182281 
	C204.174637,382.239532 202.746384,383.253204 201.186432,383.986755 
	C197.066147,385.924255 196.628204,387.795288 198.931442,391.750031 
	C201.654938,396.426392 204.054733,401.291290 206.971573,406.810455 
M687.605835,384.964569 
	C682.222046,380.703552 681.238098,380.869995 678.049988,386.573181 
	C677.662170,387.266907 677.282288,387.966980 676.856628,388.637390 
	C668.664062,401.541168 666.161255,415.706207 667.189941,430.788208 
	C671.269531,430.788208 675.024231,430.788208 679.086182,430.788208 
	C678.699219,428.171753 677.989746,425.796753 678.060852,423.445374 
	C678.414551,411.749756 681.772583,400.911926 689.031433,391.703583 
	C691.500427,388.571472 691.240234,386.999756 687.605835,384.964569 
z"/>
<path fill="#FFFFFF" opacity="1.000000" stroke="none" 
	d="
M195.000000,575.000000 
	C380.133362,575.000000 564.766724,574.977783 749.400085,575.042053 
	C764.239990,575.047241 777.543213,580.289062 789.372009,588.978760 
	C803.707520,599.509949 813.640259,613.426208 817.288025,630.899109 
	C821.499146,651.070618 819.585938,670.448181 808.150085,688.538269 
	C796.600647,706.808228 780.140808,717.708374 759.474670,721.582642 
	C738.037781,725.601440 717.922974,721.070618 700.226990,707.713745 
	C686.291382,697.195129 677.688171,683.062744 673.317505,666.414490 
	C671.886658,660.964294 672.096069,655.083374 671.536072,649.196777 
	C519.883362,649.196777 368.161499,649.196777 216.114883,649.196777 
	C216.266678,661.847290 213.328018,673.549377 207.156967,684.531189 
	C199.857285,697.521484 189.825317,707.219299 176.602676,714.362610 
	C165.658310,720.275146 154.148621,722.982178 142.197296,722.821045 
	C117.031975,722.481934 96.460732,712.431641 81.795631,691.402832 
	C73.444115,679.427246 68.680389,666.473206 68.871216,651.601501 
	C69.010437,640.752136 69.027840,629.968811 74.061356,620.104248 
	C77.401649,613.557983 80.970665,606.961792 85.492393,601.218689 
	C95.819565,588.102051 110.040215,580.685669 125.824509,576.146240 
	C128.907822,575.259583 132.272583,575.063843 135.509964,575.048035 
	C155.172928,574.951843 174.836578,575.000000 195.000000,575.000000 
z"/>
<path fill="#FFFFFF" opacity="1.000000" stroke="none" 
	d="
M545.675171,931.819946 
	C539.565979,937.239441 533.510986,942.183655 527.949219,947.631409 
	C514.588623,960.718018 501.056152,973.666992 488.350067,987.373413 
	C475.534058,1001.198303 463.377777,1015.661438 451.403015,1030.231689 
	C440.554962,1043.431030 430.408691,1057.205566 419.729462,1070.547729 
	C418.796234,1071.713623 416.199097,1071.939697 414.373718,1071.942627 
	C368.713989,1072.015747 323.054138,1072.000000 277.394287,1072.000000 
	C248.398621,1072.000000 219.402954,1072.000000 190.407288,1072.000000 
	C188.668243,1072.000000 186.929184,1072.000000 185.190140,1072.000000 
	C185.053162,1071.514648 184.916168,1071.029297 184.779190,1070.544067 
	C324.605988,903.568237 503.302246,816.708923 720.940979,810.116577 
	C721.250122,810.711853 721.559265,811.307190 721.868347,811.902466 
	C717.346252,814.347473 712.809570,816.765930 708.304749,819.242493 
	C694.947449,826.585754 681.410889,833.628601 668.308167,841.402100 
	C655.737793,848.859802 643.336426,856.676880 631.376648,865.071045 
	C614.825439,876.687683 598.616760,888.808289 582.533386,901.069885 
	C572.552490,908.679199 563.056641,916.926697 553.384399,924.937622 
	C550.828674,927.054504 548.426270,929.356506 545.675171,931.819946 
z"/>
<path fill="#FFFFFF" opacity="1.000000" stroke="none" 
	d="
M553.000000,530.000000 
	C437.860077,530.000000 323.220123,530.000000 208.290161,530.000000 
	C208.290161,506.051422 208.290161,482.313171 208.290161,458.286926 
	C365.286011,458.286926 522.352783,458.286926 679.709839,458.286926 
	C679.709839,481.948517 679.709839,505.686768 679.709839,530.000000 
	C637.688599,530.000000 595.594299,530.000000 553.000000,530.000000 
z"/>
<path fill="#FFFFFF" opacity="1.000000" stroke="none" 
	d="
M415.999939,337.235840 
	C415.333282,328.926453 414.668884,321.093628 413.999542,313.261230 
	C412.674896,297.760498 411.339508,282.260712 410.024658,266.759125 
	C409.332214,258.595032 408.758026,250.419998 407.980804,242.264160 
	C406.726044,229.096939 405.314240,215.944748 404.034454,202.779831 
	C403.290192,195.123932 402.834534,187.437210 401.959839,179.797440 
	C400.832367,169.949768 399.295074,160.149078 398.161560,150.301987 
	C397.263489,142.500229 396.850037,134.642914 395.964661,126.839409 
	C394.810150,116.663940 393.409760,106.516258 392.100494,96.358505 
	C391.164917,89.099991 390.152252,81.851028 389.269440,74.586197 
	C388.130127,65.210274 387.079773,55.823502 386.015015,46.438690 
	C385.943542,45.808876 386.073029,45.156261 386.123230,44.261013 
	C424.643311,44.261013 463.042511,44.261013 502.297028,44.261013 
	C501.866547,47.620144 501.452667,50.931896 501.016022,54.240643 
	C500.016632,61.813251 499.019897,69.386269 497.997162,76.955734 
	C496.017273,91.608795 493.936829,106.248894 492.066711,120.915878 
	C491.178070,127.885338 490.755646,134.912933 489.982025,141.898697 
	C488.727112,153.230453 487.301788,164.543396 486.055695,175.876068 
	C485.269440,183.026978 484.759186,190.208130 483.981598,197.360107 
	C482.730988,208.863434 481.306183,220.347885 480.069275,231.852615 
	C479.560638,236.583664 479.336456,241.345749 479.004364,246.095230 
	C478.328491,255.759659 477.664886,265.424927 477.000427,275.090149 
	C475.997925,289.672760 474.978973,304.254211 474.005249,318.838745 
	C473.304535,329.334503 472.462860,339.826263 472.039886,350.334137 
	C470.967468,376.975098 470.095276,403.624115 469.129364,430.648987 
	C452.848145,430.648987 435.779297,430.648987 418.282410,430.648987 
	C418.204712,429.696411 418.015656,428.442230 418.013428,427.187683 
	C417.991272,414.693298 418.248169,402.192688 417.939941,389.705872 
	C417.512054,372.369385 416.666626,355.043213 415.999939,337.235840 
z"/>
<path fill="#FFFFFF" opacity="1.000000" stroke="none" 
	d="
M240.000000,707.006348 
	C240.000000,702.196472 240.000000,697.885010 240.000000,693.287659 
	C269.286896,693.287659 298.357880,693.287659 327.777771,693.287659 
	C327.848785,694.637390 327.990234,696.074036 327.990509,697.510681 
	C328.001617,755.840454 327.970703,814.170349 328.067474,872.499939 
	C328.073761,876.286926 326.506958,878.213562 323.482513,880.283386 
	C307.489075,891.228760 291.491638,902.193359 275.933319,913.740967 
	C264.658264,922.109558 254.075699,931.409851 243.139740,940.239502 
	C242.479156,940.772766 241.423843,940.817139 240.000000,941.261169 
	C240.000000,863.031860 240.000000,785.268311 240.000000,707.006348 
z"/>
<path fill="#FFFFFF" opacity="1.000000" stroke="none" 
	d="
M332.023407,279.992096 
	C328.001465,264.861511 324.125549,250.120926 319.964783,235.461182 
	C316.467407,223.138901 312.938507,210.810394 308.879364,198.666565 
	C303.906555,183.789230 298.280426,169.131226 293.159119,154.301605 
	C292.325592,151.887970 289.991333,149.043091 295.828888,147.742477 
	C313.513062,143.802444 330.955170,138.778519 348.506073,134.232849 
	C349.749756,133.910751 351.111115,134.043106 352.363983,133.967377 
	C377.398651,231.353607 391.103210,330.139465 394.262787,430.998291 
	C382.811310,430.998291 371.874237,431.092499 360.945129,430.841339 
	C359.937653,430.818176 358.299408,428.694092 358.106262,427.376617 
	C356.267670,414.835541 354.692474,402.255981 353.012878,389.691345 
	C351.355713,377.294067 349.962860,364.851593 347.903381,352.520905 
	C345.965607,340.919067 343.416931,329.414032 340.939758,317.908905 
	C338.299774,305.647522 335.431274,293.435333 332.640808,281.206635 
	C332.573914,280.913452 332.250000,280.678986 332.023407,279.992096 
z"/>
<path fill="#FFFFFF" opacity="1.000000" stroke="none" 
	d="
M588.000000,171.996887 
	C581.994507,191.159241 575.899048,209.883240 570.024597,228.676315 
	C566.821899,238.922287 563.696716,249.210251 561.066833,259.613342 
	C557.129578,275.188416 553.629517,290.874695 550.001038,306.527008 
	C547.820862,315.931946 545.528320,325.319183 543.688354,334.792511 
	C541.561279,345.743774 539.889038,356.783081 537.995239,367.780029 
	C536.046509,379.096008 533.821838,390.371490 532.188232,401.732330 
	C531.048523,409.659210 530.527893,417.690216 530.075928,425.694244 
	C529.862610,429.472107 528.862549,431.212738 524.640991,431.091827 
	C514.661438,430.805969 504.668091,431.000000 493.645203,431.000000 
	C494.052368,422.036621 494.412415,413.202148 494.869263,404.372742 
	C495.175018,398.462463 495.548035,392.553772 496.013519,386.654053 
	C497.302216,370.319794 498.656555,353.990723 499.981934,337.659332 
	C500.657959,329.328949 501.176636,320.982300 502.042175,312.671722 
	C502.917877,304.263672 504.063141,295.881317 505.220795,287.505707 
	C506.397644,278.991241 507.690491,270.492004 509.012329,261.998535 
	C510.331451,253.522461 511.588043,245.031631 513.161255,236.601257 
	C515.647034,223.281143 518.232300,209.976074 521.038391,196.720291 
	C523.970154,182.870621 527.186462,169.080750 530.330322,155.276566 
	C531.932861,148.239716 533.649170,141.228760 535.441162,133.669937 
	C542.883911,135.516312 550.174683,137.332016 557.469116,139.132965 
	C569.472473,142.096512 581.491943,144.997757 593.453186,148.122055 
	C594.289185,148.340424 595.453796,150.426987 595.192200,151.229736 
	C592.962646,158.070099 590.438232,164.814316 588.000000,171.996887 
z"/>
<path fill="#FFFFFF" opacity="1.000000" stroke="none" 
	d="
M476.652649,804.738892 
	C463.643372,809.738037 450.893463,814.316528 438.326294,819.351196 
	C428.856049,823.145142 419.619904,827.523438 410.192871,831.679932 
	C410.192871,785.468811 410.192871,739.438049 410.192871,693.203857 
	C439.104156,693.203857 467.822968,693.203857 497.000000,693.203857 
	C497.000000,694.441956 497.000000,695.554077 497.000000,696.666260 
	C497.000000,728.635376 496.971405,760.604553 497.038330,792.573547 
	C497.046173,796.332031 496.434082,798.466919 491.878479,799.249817 
	C486.765289,800.128540 481.940674,802.686707 476.652649,804.738892 
z"/>
<path fill="#FFFFFF" opacity="1.000000" stroke="none" 
	d="
M610.000000,693.000000 
	C622.465881,693.000000 634.431763,693.000000 646.698425,693.000000 
	C646.698425,716.903137 646.698425,740.619629 646.698425,764.390198 
	C618.113586,769.258301 589.375916,774.152466 560.392273,779.088501 
	C560.392273,751.120850 560.392273,722.326843 560.392273,693.000000 
	C576.671021,693.000000 593.085510,693.000000 610.000000,693.000000 
z"/>
<path fill="#FFFFFF" opacity="1.000000" stroke="none" 
	d="
M597.020020,365.064453 
	C594.666077,376.334564 592.043091,387.134033 590.084473,398.052673 
	C588.338013,407.788483 587.443237,417.675140 585.853821,427.443329 
	C585.635925,428.782379 583.624084,430.774414 582.358826,430.839874 
	C575.748047,431.181915 569.110107,430.999542 561.803223,430.999542 
	C565.532593,356.723938 587.494019,288.739105 627.068848,226.031616 
	C638.472961,228.852554 649.732483,231.637726 661.718201,234.602539 
	C658.339722,239.456818 654.999329,243.753265 652.195740,248.375366 
	C642.212463,264.834412 631.639954,281.000946 622.739258,298.035217 
	C611.836365,318.901367 603.379456,340.902710 597.606567,363.830200 
	C597.530945,364.130554 597.233765,364.375122 597.020020,365.064453 
z"/>
<path fill="#FFFFFF" opacity="1.000000" stroke="none" 
	d="
M254.997910,278.963440 
	C245.619766,264.001831 236.275726,249.418350 226.790421,234.614395 
	C237.799927,231.753265 248.576462,228.869400 259.423676,226.281845 
	C260.355072,226.059631 262.241882,227.537613 262.863434,228.674759 
	C269.749237,241.272675 276.458496,253.966934 283.243195,266.620270 
	C293.401245,285.564850 301.264221,305.514191 307.327240,326.041199 
	C312.691345,344.201935 317.096161,362.705139 320.769043,381.285553 
	C323.225708,393.713043 323.648102,406.541565 325.007812,419.187714 
	C325.407745,422.907501 325.899780,426.617371 326.393921,430.697632 
	C318.123444,430.697632 310.379822,430.697632 302.405365,430.697632 
	C301.615112,423.603485 301.119507,416.302277 299.927399,409.116638 
	C298.107056,398.143738 296.118134,387.179260 293.641876,376.338898 
	C288.782593,355.066223 281.922577,334.390289 272.897186,314.533356 
	C267.458679,302.567993 261.020813,291.056854 254.997910,278.963440 
z"/>
<path fill="#FFFFFF" opacity="1.000000" stroke="none" 
	d="
M626.862305,431.000000 
	C621.406189,431.000000 616.433960,431.000000 610.785339,431.000000 
	C611.624695,425.258057 612.034302,419.794281 613.264526,414.521912 
	C617.562073,396.102844 622.052002,377.630432 630.169373,360.503052 
	C637.495850,345.044525 646.013123,330.130951 654.436951,315.220978 
	C658.067810,308.794434 662.803284,302.994080 667.006470,296.888275 
	C670.779358,291.407532 671.650696,291.317688 677.745911,293.913147 
	C682.703979,296.024384 687.882935,297.616760 692.963989,299.439240 
	C693.512268,300.068146 694.060608,300.697052 694.608887,301.325958 
	C692.853149,302.271667 690.791809,302.892426 689.388184,304.212463 
	C672.147156,320.427917 658.896545,339.590485 648.709839,360.836517 
	C640.902344,377.120178 635.204834,394.147583 632.998413,412.192657 
	C632.327759,417.677948 631.408997,423.149719 631.096436,428.655640 
	C630.914734,431.854889 628.943604,430.807220 626.862305,431.000000 
z"/>
<path fill="#FFFFFF" opacity="1.000000" stroke="none" 
	d="
M228.250031,307.673126 
	C234.961090,318.513672 242.077209,328.728699 247.806305,339.670013 
	C256.883759,357.006012 264.850159,374.874268 269.084991,394.186920 
	C271.733368,406.264648 274.901642,418.228394 277.955322,430.729126 
	C270.500305,430.729126 264.073212,430.729126 257.412170,430.729126 
	C253.324982,379.320618 231.990921,335.947205 194.365997,299.823944 
	C200.756393,297.369232 206.788025,295.434753 212.452606,292.731201 
	C215.786499,291.140045 217.537613,292.588776 219.143707,294.718079 
	C222.246231,298.831299 225.084869,303.143616 228.250031,307.673126 
z"/>
<path fill="#FFFFFF" opacity="1.000000" stroke="none" 
	d="
M661.722473,371.708130 
	C668.061157,358.483734 675.751770,346.635376 685.438538,336.081726 
	C697.201843,347.241119 696.563232,346.691925 686.315918,358.607819 
	C679.580872,366.439423 674.317566,375.785858 669.641602,385.080963 
	C662.526672,399.224457 660.046021,414.744598 658.767273,430.718597 
	C654.750793,430.718597 650.666870,430.718597 646.005798,430.718597 
	C647.207275,410.089203 652.655762,390.622772 661.722473,371.708130 
z"/>
<path fill="#FFFFFF" opacity="1.000000" stroke="none" 
	d="
M196.188324,342.316437 
	C198.233871,339.992645 200.036179,337.941742 202.082703,335.612915 
	C225.803833,363.110504 239.193192,394.562256 241.893539,431.000000 
	C239.714890,431.000000 237.586349,431.000000 235.457809,431.000000 
	C233.481430,431.000000 231.505066,431.000000 230.210556,431.000000 
	C227.413910,418.212250 225.636124,405.506775 221.690186,393.514740 
	C218.633865,384.226318 213.394257,375.497559 208.134964,367.143372 
	C203.981644,360.545990 198.284119,354.927460 193.345505,348.815186 
	C190.478424,345.266724 195.856216,344.996429 196.188324,342.316437 
z"/>
<path fill="#FFFFFF" opacity="1.000000" stroke="none" 
	d="
M206.783203,406.442444 
	C204.054733,401.291290 201.654938,396.426392 198.931442,391.750031 
	C196.628204,387.795288 197.066147,385.924255 201.186432,383.986755 
	C202.746384,383.253204 204.174637,382.239532 205.950592,381.182281 
	C217.297058,395.475372 221.654404,412.109680 220.940842,430.673767 
	C217.004959,430.673767 213.140060,430.673767 210.426315,430.673767 
	C209.245102,422.514618 208.108337,414.662537 206.783203,406.442444 
z"/>
<path fill="#FFFFFF" opacity="1.000000" stroke="none" 
	d="
M687.982910,384.998535 
	C691.240234,386.999756 691.500427,388.571472 689.031433,391.703583 
	C681.772583,400.911926 678.414551,411.749756 678.060852,423.445374 
	C677.989746,425.796753 678.699219,428.171753 679.086182,430.788208 
	C675.024231,430.788208 671.269531,430.788208 667.189941,430.788208 
	C666.161255,415.706207 668.664062,401.541168 676.856628,388.637390 
	C677.282288,387.966980 677.662170,387.266907 678.049988,386.573181 
	C681.238098,380.869995 682.222046,380.703552 687.982910,384.998535 
z"/>
</svg>